<svg width="128" height="128" viewBox="0 0 128 128" fill="none" xmlns="http://www.w3.org/2000/svg">
<g clip-path="url(#clip0_1_2)">
<rect width="128" height="128" fill="#D9304F"/>
<path d="M118.995 70.0066C94.7932 103.362 85.822 72.3122 71.2137 72.3122C65.5029 72.3122 64.0033 76.8639 64.0033 78.859C64.0033 76.8772 62.5036 72.3122 56.7928 72.3122C42.1778 72.3122 33.2133 103.362 9.00449 70C8.54254 106.599 43.8181 115.253 64.0033 92.3623C84.1885 115.253 119.464 106.605 118.995 70.0066Z" fill="white"/>
<path d="M115.429 56.4633C112.732 57.9156 109.748 59.3478 107.196 60.4603C106.354 60.8193 105.447 61.0029 104.532 60.9999H22.527C21.6113 61.0037 20.7046 60.82 19.8625 60.4603C17.3113 59.3612 14.3271 57.9289 11.6227 56.4633C11.3828 56.3349 11.1946 56.1274 11.0902 55.876C10.9858 55.6247 10.9716 55.345 11.0499 55.0843C11.3696 54.0118 11.9824 52.1132 12.8484 49.9947C12.9107 49.8427 13.0038 49.7053 13.1217 49.5909C13.2397 49.4766 13.38 49.3879 13.5339 49.3304C13.6877 49.2728 13.8518 49.2477 14.0158 49.2565C14.1798 49.2654 14.3403 49.3081 14.487 49.3818C17.1115 50.7142 19.2031 51.6602 21.1481 52.4862V36.498C21.1484 36.2177 21.2475 35.9464 21.4279 35.7319C26.5631 29.5569 32.9944 24.5881 40.2654 21.1779C47.5363 17.7678 55.4687 16 63.4994 16C71.5302 16 79.4626 17.7678 86.7335 21.1779C94.0045 24.5881 100.436 29.5569 105.571 35.7319C105.751 35.9464 105.85 36.2177 105.851 36.498V52.4862C107.809 51.6602 109.901 50.7142 112.512 49.3818C112.658 49.3071 112.818 49.2637 112.982 49.2544C113.146 49.2451 113.31 49.2701 113.463 49.3278C113.617 49.3854 113.757 49.4746 113.874 49.5894C113.991 49.7043 114.083 49.8423 114.144 49.9947C115.016 52.1132 115.623 53.9918 115.942 55.0843C116.025 55.3383 116.019 55.6127 115.926 55.863C115.833 56.1132 115.658 56.3248 115.429 56.4633V56.4633Z" fill="white"/>
</g>
<defs>
<clipPath id="clip0_1_2">
<rect width="128" height="128" rx="15" fill="white"/>
</clipPath>
</defs>
</svg>
