<svg width="40" height="41" viewBox="0 0 40 41" fill="none" xmlns="http://www.w3.org/2000/svg">
<path fill-rule="evenodd" clip-rule="evenodd" d="M20 40.0025C31.0457 40.0025 40 31.0482 40 20.0025C40 8.95681 31.0457 0.00250244 20 0.00250244C8.9543 0.00250244 0 8.95681 0 20.0025C0 31.0482 8.9543 40.0025 20 40.0025ZM24.1947 9.00491C26.2908 9.35936 28.2952 9.98269 30.1652 10.826C30.1815 10.8325 30.195 10.8447 30.2031 10.8602C33.5165 15.6538 35.1519 21.0634 34.5408 27.2894C34.5393 27.3025 34.5351 27.3152 34.5283 27.3266C34.5216 27.338 34.5125 27.3478 34.5017 27.3554C32.2792 28.9745 29.799 30.2064 27.1659 30.9988C27.1473 31.0044 27.1275 31.004 27.1091 30.9979C27.0908 30.9918 27.0747 30.9802 27.0632 30.9646C26.5095 30.2056 26.006 29.4062 25.566 28.5666C25.56 28.555 25.5565 28.5423 25.5558 28.5293C25.5552 28.5162 25.5572 28.5032 25.562 28.4911C25.5667 28.4789 25.574 28.4679 25.5833 28.4588C25.5927 28.4497 25.6038 28.4427 25.6161 28.4382C26.4142 28.1425 27.1744 27.7868 27.9053 27.3664C27.9184 27.3586 27.9293 27.3478 27.9371 27.3348C27.9449 27.3218 27.9493 27.3071 27.9501 27.2919C27.9508 27.2768 27.9478 27.2617 27.9412 27.248C27.9347 27.2344 27.9249 27.2225 27.9127 27.2136C27.7574 27.0999 27.6047 26.9814 27.458 26.8616C27.4445 26.8509 27.4284 26.8442 27.4113 26.8422C27.3942 26.8403 27.3769 26.8432 27.3614 26.8506C22.618 29.0066 17.4199 29.0066 12.6202 26.8506C12.6047 26.8436 12.5876 26.841 12.5708 26.8432C12.554 26.8454 12.5381 26.8521 12.5249 26.8628C12.3782 26.9814 12.2242 27.0999 12.0702 27.2136C12.0581 27.2227 12.0484 27.2347 12.0421 27.2485C12.0358 27.2623 12.033 27.2775 12.0339 27.2926C12.0349 27.3077 12.0396 27.3224 12.0477 27.3353C12.0557 27.3482 12.0668 27.3588 12.08 27.3664C12.8134 27.7833 13.5784 28.1421 14.368 28.4395C14.4193 28.459 14.4438 28.5177 14.4181 28.5666C13.9879 29.4075 13.4843 30.208 12.9197 30.9658C12.9077 30.9808 12.8915 30.9919 12.8732 30.9975C12.8549 31.0032 12.8353 31.0032 12.817 30.9976C10.1884 30.2029 7.71224 28.9717 5.49221 27.3554C5.48166 27.3473 5.47286 27.3372 5.46635 27.3256C5.45984 27.3141 5.45574 27.3013 5.45432 27.2881C4.94221 21.903 5.98476 16.4495 9.78832 10.8578C9.79768 10.8431 9.81133 10.8316 9.82743 10.8248C11.6987 9.98025 13.7031 9.35691 15.798 9.00247C15.8169 8.99947 15.8363 9.00231 15.8535 9.01061C15.8708 9.01891 15.8851 9.03227 15.8945 9.04891C16.1736 9.53563 16.4254 10.0375 16.6487 10.5522C18.8718 10.2201 21.1319 10.2201 23.355 10.5522C23.5554 10.0878 23.8414 9.49991 24.0981 9.04891C24.1076 9.03247 24.1221 9.01941 24.1394 9.01152C24.1567 9.00364 24.176 9.00133 24.1947 9.00491ZM12.4992 21.1C12.4992 22.7024 13.6909 24.0089 15.1355 24.0089C16.6034 24.0089 17.7719 22.7036 17.7719 21.1C17.7951 19.5075 16.6144 18.1911 15.1355 18.1911C13.6677 18.1911 12.4992 19.4965 12.4992 21.1ZM22.2464 21.1C22.2464 22.7024 23.4369 24.0089 24.8828 24.0089C26.3629 24.0089 27.5191 22.7036 27.5191 21.1C27.5423 19.5075 26.3617 18.1911 24.8828 18.1911C23.4137 18.1911 22.2464 19.4965 22.2464 21.1Z" fill="white"/>
</svg>
