<svg width="40" height="41" viewBox="0 0 40 41" fill="none" xmlns="http://www.w3.org/2000/svg">
<path fill-rule="evenodd" clip-rule="evenodd" d="M20 40.0025C31.0457 40.0025 40 31.0482 40 20.0025C40 8.95681 31.0457 0.00250244 20 0.00250244C8.9543 0.00250244 0 8.95681 0 20.0025C0 31.0482 8.9543 40.0025 20 40.0025ZM4 20.0025C4 11.1625 11.16 4.0025 20 4.0025C28.84 4.0025 36 11.1625 36 20.0025C35.999 23.3549 34.9469 26.6226 32.9916 29.3457C31.0362 32.0687 28.2762 34.1101 25.1 35.1825C24.3 35.3425 24 34.8425 24 34.4225C24 34.2419 24.0022 33.9295 24.0052 33.5135C24.0111 32.6853 24.02 31.447 24.02 30.0225C24.02 28.5225 23.52 27.5625 22.94 27.0625C26.5 26.6625 30.24 25.3025 30.24 19.1625C30.24 17.4025 29.62 15.9825 28.6 14.8625C28.76 14.4625 29.32 12.8225 28.44 10.6225C28.44 10.6225 27.1 10.1825 24.04 12.2625C22.76 11.9025 21.4 11.7225 20.04 11.7225C18.68 11.7225 17.32 11.9025 16.04 12.2625C12.98 10.2025 11.64 10.6225 11.64 10.6225C10.76 12.8225 11.32 14.4625 11.48 14.8625C10.46 15.9825 9.84 17.4225 9.84 19.1625C9.84 25.2825 13.56 26.6625 17.12 27.0625C16.66 27.4625 16.24 28.1625 16.1 29.2025C15.18 29.6225 12.88 30.3025 11.44 27.8825C11.14 27.4025 10.24 26.2225 8.98 26.2425C7.64 26.2625 8.44 27.0025 9 27.3025C9.68 27.6825 10.46 29.1025 10.64 29.5625C10.96 30.4625 12 32.1825 16.02 31.4425C16.02 32.3169 16.0285 33.1572 16.0344 33.7412C16.0376 34.0522 16.04 34.2905 16.04 34.4225C16.04 34.8425 15.74 35.3225 14.94 35.1825C8.58 33.0625 4 27.0825 4 20.0025Z" fill="#222"/>
</svg>
