<svg width="40" height="41" viewBox="0 0 40 41" fill="none" xmlns="http://www.w3.org/2000/svg">
<path fill-rule="evenodd" clip-rule="evenodd" d="M20 40.0025C31.0457 40.0025 40 31.0482 40 20.0025C40 8.95681 31.0457 0.00250244 20 0.00250244C8.9543 0.00250244 0 8.95681 0 20.0025C0 31.0482 8.9543 40.0025 20 40.0025ZM33.3333 26.3358V15.4798L20.464 22.2212C20.3208 22.2962 20.1616 22.3353 20 22.3353C19.8384 22.3353 19.6792 22.2962 19.536 22.2212L6.66667 15.4798V26.3358L6.67333 26.5812C6.736 27.6862 7.21916 28.7254 8.02369 29.4856C8.82823 30.2458 9.89315 30.6692 11 30.6692H29L29.2453 30.6625C30.3504 30.5998 31.3896 30.1167 32.1498 29.3121C32.9099 28.5076 33.3334 27.4427 33.3333 26.3358ZM31.9067 10.4549C31.11 9.7345 30.0741 9.33571 29 9.33584H11L10.752 9.3425C9.72224 9.40142 8.74727 9.82571 8.00233 10.5391C7.2574 11.2525 6.79136 12.2083 6.688 13.2345L20 20.2078L33.312 13.2345C33.2043 12.1658 32.7035 11.1752 31.9067 10.4549Z" fill="white"/>
</svg>
