<svg width="40" height="41" viewBox="0 0 40 41" fill="none" xmlns="http://www.w3.org/2000/svg">
<path fill-rule="evenodd" clip-rule="evenodd" d="M20 40.0025C31.0457 40.0025 40 31.0482 40 20.0025C40 8.95681 31.0457 0.00250244 20 0.00250244C8.9543 0.00250244 0 8.95681 0 20.0025C0 31.0482 8.9543 40.0025 20 40.0025ZM13.9052 28C18.3372 28 21.9283 24.4178 21.9283 20C21.9269 18.9479 21.7183 17.9063 21.3143 16.9349C20.9103 15.9634 20.3189 15.081 19.5739 14.3381C18.8289 13.5952 17.9448 13.0064 16.9721 12.6052C15.9995 12.204 14.9574 11.9984 13.9052 12C9.47502 12 5.88391 15.5804 5.88391 20C5.88531 21.052 6.0939 22.0934 6.49777 23.0647C6.90163 24.0361 7.49287 24.9184 8.23772 25.6613C8.98257 26.4041 9.86644 26.993 10.8389 27.3943C11.8113 27.7956 12.8533 28.0014 13.9052 28ZM26.7177 27.5307C28.9328 27.5307 30.7283 24.16 30.7283 20C30.7283 15.8418 28.9328 12.4693 26.7177 12.4693C24.5025 12.4693 22.707 15.84 22.707 20C22.707 24.1582 24.5025 27.5307 26.7177 27.5307ZM32.9168 26.7467C33.6972 26.7467 34.3283 23.7262 34.3283 20C34.3283 16.2738 33.6972 13.2533 32.9185 13.2533C32.1381 13.2533 31.507 16.2738 31.507 20C31.507 23.7244 32.1381 26.7467 32.9168 26.7467Z" fill="white"/>
</svg>
