<svg width="40" height="41" viewBox="0 0 40 41" fill="none" xmlns="http://www.w3.org/2000/svg">
<path fill-rule="evenodd" clip-rule="evenodd" d="M40 20.0025C40 31.0475 31.045 40.0025 20 40.0025C8.955 40.0025 0 31.0475 0 20.0025C0 8.9575 8.955 0.00250244 20 0.00250244C31.045 0.00250244 40 8.9575 40 20.0025ZM20.7167 14.7675C18.7717 15.5758 14.8833 17.2508 9.05333 19.7908C8.10667 20.1675 7.61 20.5358 7.565 20.8958C7.48833 21.5058 8.25167 21.7458 9.28833 22.0708C9.43 22.1158 9.57667 22.1608 9.72667 22.2108C10.7483 22.5425 12.1217 22.9308 12.835 22.9458C13.4833 22.9592 14.2067 22.6925 15.005 22.1458C20.4517 18.4675 23.2633 16.6092 23.44 16.5692C23.565 16.5408 23.7383 16.5042 23.855 16.6092C23.9717 16.7125 23.96 16.9092 23.9483 16.9625C23.8717 17.2842 20.8817 20.0658 19.3317 21.5058C18.8483 21.9542 18.5067 22.2725 18.4367 22.3458C18.28 22.5075 18.12 22.6625 17.9667 22.8108C17.0167 23.7242 16.3067 24.4108 18.0067 25.5308C18.8233 26.0692 19.4767 26.5142 20.1283 26.9575C20.84 27.4425 21.55 27.9258 22.47 28.5292C22.7033 28.6825 22.9267 28.8408 23.145 28.9958C23.9733 29.5875 24.7183 30.1175 25.6383 30.0342C26.1717 29.9842 26.725 29.4825 27.005 27.9842C27.6667 24.4408 28.97 16.7675 29.2717 13.6042C29.29 13.3415 29.2788 13.0777 29.2383 12.8175C29.2141 12.6074 29.1118 12.4141 28.9517 12.2758C28.7133 12.0808 28.3433 12.0392 28.1767 12.0425C27.425 12.0558 26.2717 12.4575 20.7167 14.7675Z" fill="white"/>
</svg>
