<svg width="40" height="41" viewBox="0 0 40 41" fill="none" xmlns="http://www.w3.org/2000/svg">
<path d="M20 0.00250244C8.95536 0.00250244 0 8.95786 0 20.0025C0 31.0471 8.95536 40.0025 20 40.0025C31.0446 40.0025 40 31.0471 40 20.0025C40 8.95786 31.0446 0.00250244 20 0.00250244ZM29.6116 15.0784C29.625 15.2882 29.625 15.507 29.625 15.7213C29.625 22.2748 24.6339 29.8239 15.5134 29.8239C12.7009 29.8239 10.0938 29.007 7.89732 27.6007C8.29911 27.6454 8.68304 27.6632 9.09375 27.6632C11.4152 27.6632 13.5491 26.8775 15.25 25.5471C13.0714 25.5025 11.2411 24.0739 10.6161 22.1096C11.3795 22.2213 12.067 22.2213 12.8527 22.0204C11.7309 21.7925 10.7227 21.1832 9.99918 20.2962C9.2757 19.4091 8.88164 18.299 8.88393 17.1543V17.0918C9.54018 17.4623 10.3125 17.69 11.1205 17.7213C10.4413 17.2685 9.88419 16.6552 9.49871 15.9357C9.11323 15.2161 8.91127 14.4126 8.91072 13.5963C8.91072 12.6721 9.15179 11.8284 9.58482 11.0963C10.8299 12.629 12.3836 13.8826 14.1449 14.7756C15.9062 15.6685 17.8358 16.1809 19.808 16.2793C19.1071 12.9088 21.625 10.1811 24.6518 10.1811C26.0804 10.1811 27.3661 10.7793 28.2723 11.7436C29.3929 11.5338 30.4643 11.1141 31.4196 10.5516C31.0491 11.6989 30.2723 12.6677 29.2411 13.2793C30.2411 13.1721 31.2054 12.8954 32.0982 12.507C31.4241 13.498 30.5804 14.3775 29.6116 15.0784Z" fill="white"/>
</svg>
